# xmcd
#
# Track frame offsets:
#	150
#	18040
#	35427
#	50100
#	72500
#
# Disc length: 1152 seconds
#
# Revision: 1
# Processed by: cddbd v1.5.1PL0 Copyright (c) Steve Scherf et al.
# Submitted via: audiograbber 1.83.01
#
DISCID=3e047e05
DTITLE=John RICH - I play for you
DYEAR=2000
DGENRE=Country
TTITLE0=I pray for you
TTITLE1=Unterneath the same moon
TTITLE2=Old blue mountain
TTITLE3=Steel bridges
TTITLE4=She brings the lightnin' down
EXTD=
EXTT0=
EXTT1=
EXTT2=
EXTT3=
EXTT4=
PLAYORDER=
